<?xml version="1.0" standalone="no"?>
<!DOCTYPE svg PUBLIC "-//W3C//DTD SVG 20010904//EN"
 "http://www.w3.org/TR/2001/REC-SVG-20010904/DTD/svg10.dtd">
<svg version="1.0" xmlns="http://www.w3.org/2000/svg"
 width="350.000000pt" height="350.000000pt" viewBox="0 0 350.000000 350.000000"
 preserveAspectRatio="xMidYMid meet">
<metadata>
Created by potrace 1.14, written by Peter Selinger 2001-2017
</metadata>
<g transform="translate(0.000000,350.000000) scale(0.100000,-0.100000)"
fill="#000000" stroke="none">
<path d="M1440 2774 c-25 -5 -54 -14 -65 -19 -99 -42 -130 -58 -162 -82 -51
-37 -100 -92 -114 -126 -11 -26 -13 -27 -35 -12 -27 18 -116 20 -146 4 -35
-19 -68 -61 -99 -126 -22 -49 -37 -67 -67 -82 -46 -24 -67 -43 -117 -106 -22
-27 -43 -51 -47 -53 -5 -2 -8 -8 -8 -13 0 -6 -15 -27 -34 -47 -71 -76 -98
-124 -111 -192 -4 -19 -20 -54 -36 -77 -46 -66 -75 -142 -78 -203 -1 -30 -11
-84 -23 -119 -16 -50 -19 -79 -15 -131 5 -65 5 -69 -24 -96 -63 -60 -74 -90
-74 -199 1 -95 2 -103 35 -164 26 -48 50 -76 95 -109 138 -103 250 -124 650
-125 l220 -1 120 39 c66 21 144 49 173 62 29 13 74 28 100 33 26 6 77 22 114
36 76 29 71 30 263 -41 133 -49 309 -104 367 -115 27 -5 52 -11 57 -14 13 -9
438 -10 506 -2 126 15 266 64 360 125 79 51 87 60 132 151 28 55 33 76 33 136
0 67 -4 79 -51 170 -33 63 -52 114 -54 139 -1 22 -9 69 -18 105 -16 67 -28
129 -26 143 0 4 -6 18 -13 30 -8 12 -19 40 -26 62 -20 68 -136 312 -162 342
-14 15 -51 60 -82 99 -56 71 -104 114 -164 149 -20 11 -41 38 -58 75 -34 71
-89 129 -125 132 -14 1 -49 1 -77 0 -49 -2 -53 0 -78 37 -47 68 -222 173 -311
187 -34 5 -155 8 -247 5 -17 -1 -44 -15 -68 -37 -45 -41 -71 -41 -116 1 -39
37 -197 53 -294 29z"/>
</g>
</svg>
